REM DIRINDEX 1\2,1\3
REM DIRNAME cjc133,folder01,folder02
TITLE ""
FILE "DISC2Track01.mp3" MP3
  TRACK 01 AUDIO
    TITLE "0:"
    INDEX 01 00:00:00
  TRACK 02 AUDIO
    TITLE "3:cjc133_1705"
    INDEX 01 00:00:13
  TRACK 03 AUDIO
    TITLE "0:"
    INDEX 01 00:01:54
  TRACK 04 AUDIO
    TITLE "2:cjc133_1706"
    INDEX 01 00:02:28
  TRACK 05 AUDIO
    TITLE "2:cjc133_1707"
    INDEX 01 00:04:25
  TRACK 06 AUDIO
    TITLE "2:cjc133_1708"
    INDEX 01 00:06:51
  TRACK 07 AUDIO
    TITLE "0:"
    INDEX 01 00:08:24
  TRACK 08 AUDIO
    TITLE "2:cjc133_1709"
    INDEX 01 00:08:68
  TRACK 09 AUDIO
    TITLE "2:cjc133_1710"
    INDEX 01 00:10:37
  TRACK 10 AUDIO
    TITLE "2:cjc133_1711"
    INDEX 01 00:12:67
  TRACK 11 AUDIO
    TITLE "0:"
    INDEX 01 00:14:39
  TRACK 12 AUDIO
    TITLE "2:cjc133_1712"
    INDEX 01 00:15:09
  TRACK 13 AUDIO
    TITLE "2:cjc133_1713"
    INDEX 01 00:16:69
  TRACK 14 AUDIO
    TITLE "2:cjc133_1714"
    INDEX 01 00:19:63
  TRACK 15 AUDIO
    TITLE "0:"
    INDEX 01 00:21:64
  TRACK 16 AUDIO
    TITLE "2:cjc133_1715"
    INDEX 01 00:22:42
  TRACK 17 AUDIO
    TITLE "2:cjc133_1716"
    INDEX 01 00:23:63
  TRACK 18 AUDIO
    TITLE "2:cjc133_1717"
    INDEX 01 00:26:30
  TRACK 19 AUDIO
    TITLE "0:"
    INDEX 01 00:28:06
  TRACK 20 AUDIO
    TITLE "2:cjc133_1718"
    INDEX 01 00:28:47
  TRACK 21 AUDIO
    TITLE "2:cjc133_1719"
    INDEX 01 00:30:61
  TRACK 22 AUDIO
    TITLE "2:cjc133_1720"
    INDEX 01 00:33:66
  TRACK 23 AUDIO
    TITLE "0:"
    INDEX 01 00:36:07
  TRACK 24 AUDIO
    TITLE "2:cjc133_1721"
    INDEX 01 00:36:56
  TRACK 25 AUDIO
    TITLE "2:cjc133_1722"
    INDEX 01 00:38:26
  TRACK 26 AUDIO
    TITLE "2:cjc133_1723"
    INDEX 01 00:41:57
  TRACK 27 AUDIO
    TITLE "0:"
    INDEX 01 00:44:20
  TRACK 28 AUDIO
    TITLE "2:cjc133_1724"
    INDEX 01 00:44:71
  TRACK 29 AUDIO
    TITLE "2:cjc133_1725"
    INDEX 01 00:46:23
  TRACK 30 AUDIO
    TITLE "2:cjc133_1726"
    INDEX 01 00:49:59
  TRACK 31 AUDIO
    TITLE "0:"
    INDEX 01 00:52:24
  TRACK 32 AUDIO
    TITLE "2:cjc133_1727"
    INDEX 01 00:52:71
  TRACK 33 AUDIO
    TITLE "2:cjc133_1728"
    INDEX 01 00:55:34
  TRACK 34 AUDIO
    TITLE "2:cjc133_1729"
    INDEX 01 00:57:74
  TRACK 35 AUDIO
    TITLE "0:"
    INDEX 01 00:59:53
  TRACK 36 AUDIO
    TITLE "2:cjc133_1730"
    INDEX 01 01:00:31
  TRACK 37 AUDIO
    TITLE "2:cjc133_1731"
    INDEX 01 01:01:72
  TRACK 38 AUDIO
    TITLE "2:cjc133_1732"
    INDEX 01 01:05:15
  TRACK 39 AUDIO
    TITLE "0:"
    INDEX 01 01:07:37
  TRACK 40 AUDIO
    TITLE "2:cjc133_1733"
    INDEX 01 01:08:15
  TRACK 41 AUDIO
    TITLE "2:cjc133_1734"
    INDEX 01 01:09:48
  TRACK 42 AUDIO
    TITLE "2:cjc133_1735"
    INDEX 01 01:12:73
  TRACK 43 AUDIO
    TITLE "0:"
    INDEX 01 01:15:39
  TRACK 44 AUDIO
    TITLE "2:cjc133_1736"
    INDEX 01 01:16:14
  TRACK 45 AUDIO
    TITLE "2:cjc133_1737"
    INDEX 01 01:17:24
  TRACK 46 AUDIO
    TITLE "2:cjc133_1738"
    INDEX 01 01:20:67
  TRACK 47 AUDIO
    TITLE "0:"
    INDEX 01 01:23:38
  TRACK 48 AUDIO
    TITLE "2:cjc133_1739"
    INDEX 01 01:24:12
  TRACK 49 AUDIO
    TITLE "2:cjc133_1740"
    INDEX 01 01:26:15
  TRACK 50 AUDIO
    TITLE "2:cjc133_1741"
    INDEX 01 01:29:60
  TRACK 51 AUDIO
    TITLE "0:"
    INDEX 01 01:32:45
  TRACK 52 AUDIO
    TITLE "2:cjc133_1742"
    INDEX 01 01:33:23
  TRACK 53 AUDIO
    TITLE "2:cjc133_1743"
    INDEX 01 01:34:65
  TRACK 54 AUDIO
    TITLE "2:cjc133_1744"
    INDEX 01 01:38:32
  TRACK 55 AUDIO
    TITLE "0:"
    INDEX 01 01:41:10
  TRACK 56 AUDIO
    TITLE "2:cjc133_1745"
    INDEX 01 01:41:57
  TRACK 57 AUDIO
    TITLE "2:cjc133_1746"
    INDEX 01 01:42:71
  TRACK 58 AUDIO
    TITLE "2:cjc133_1747"
    INDEX 01 01:46:33
  TRACK 59 AUDIO
    TITLE "0:"
    INDEX 01 01:49:06
  TRACK 60 AUDIO
    TITLE "2:cjc133_1748"
    INDEX 01 01:49:53
  TRACK 61 AUDIO
    TITLE "2:cjc133_1749"
    INDEX 01 01:51:27
  TRACK 62 AUDIO
    TITLE "2:cjc133_1750"
    INDEX 01 01:54:74
  TRACK 63 AUDIO
    TITLE "0:"
    INDEX 01 01:57:53
